<svg xmlns="http://www.w3.org/2000/svg" viewBox="0 0 512 512" width="512" height="512">
  <defs>
    <linearGradient id="grad" x1="0%" y1="0%" x2="100%" y2="100%">
      <stop offset="0%" style="stop-color:#ef4444;stop-opacity:1" />
      <stop offset="100%" style="stop-color:#dc2626;stop-opacity:1" />
    </linearGradient>
  </defs>
  <rect width="512" height="512" rx="128" fill="#09090b" />
  <circle cx="256" cy="256" r="180" fill="url(#grad)" />
  <path d="M384 192H128c-17.6 0-32 14.4-32 32v128c0 17.6 14.4 32 32 32h256c17.6 0 32-14.4 32-32V224c0-17.6-14.4-32-32-32zm-160 120V232l80 40-80 40zm12-168l-32 32H160L128 144m160 0l-32 32h48l32-32" fill="#ffffff" stroke="#ffffff" stroke-width="6" stroke-linecap="round" stroke-linejoin="round" />
</svg>
